<?xml version="1.0" standalone="no"?>
<!DOCTYPE svg PUBLIC "-//W3C//DTD SVG 20010904//EN"
 "http://www.w3.org/TR/2001/REC-SVG-20010904/DTD/svg10.dtd">
<svg version="1.0" xmlns="http://www.w3.org/2000/svg"
 width="1300.000000pt" height="1000.000000pt" viewBox="0 0 1300.000000 1000.000000"
 preserveAspectRatio="xMidYMid meet">

<g transform="translate(0.000000,1000.000000) scale(0.100000,-0.100000)"
fill="#000000" stroke="none">
<path d="M810 9580 c0 -47 4 -80 10 -80 6 0 10 33 10 80 0 47 -4 80 -10 80 -6
0 -10 -33 -10 -80z"/>
<path d="M870 9580 c0 -47 4 -80 10 -80 6 0 10 33 10 80 0 47 -4 80 -10 80 -6
0 -10 -33 -10 -80z"/>
<path d="M2028 9653 c-30 -8 -20 -21 14 -19 40 1 50 -26 16 -41 l-23 -10 23
-7 c37 -12 26 -50 -15 -54 -18 -2 -33 -7 -33 -13 0 -13 64 -11 78 3 15 15 16
50 1 65 -8 8 -8 13 0 17 18 11 13 44 -8 56 -20 10 -25 11 -53 3z"/>
<path d="M706 9642 c-16 -27 -52 -142 -44 -142 6 0 12 9 15 20 4 16 14 20 43
20 29 0 39 -4 43 -20 3 -11 11 -20 17 -20 8 0 9 7 5 18 -4 9 -16 43 -27 75
-18 52 -38 71 -52 49z m32 -49 c10 -31 10 -33 -14 -33 -27 0 -29 6 -14 46 12
31 13 30 28 -13z"/>
<path d="M999 9633 c-4 -43 4 -109 13 -120 12 -15 48 -17 48 -3 0 6 -9 10 -20
10 -17 0 -20 7 -20 40 0 33 3 40 20 40 11 0 20 5 20 10 0 6 -9 10 -20 10 -11
0 -20 7 -20 15 0 21 -20 19 -21 -2z"/>
<path d="M1553 9643 c26 -4 27 -6 27 -74 0 -39 4 -69 10 -69 6 0 10 30 10 69
0 68 1 70 28 74 15 2 -2 4 -38 4 -36 0 -53 -2 -37 -4z"/>
<path d="M2220 9575 l0 -75 39 0 c43 0 71 20 71 51 0 11 -7 22 -15 25 -11 5
-12 11 -4 26 15 28 -6 48 -52 48 l-39 0 0 -75z m68 53 c15 -15 -3 -38 -29 -38
-14 0 -19 7 -19 25 0 27 26 35 48 13z m7 -62 c27 -19 13 -46 -25 -46 -27 0
-30 3 -30 30 0 34 22 40 55 16z"/>
<path d="M1087 9613 c-11 -10 -8 -113 3 -113 6 0 10 27 10 60 0 61 -1 65 -13
53z"/>
<path d="M1145 9612 c-9 -10 -5 -112 4 -112 6 0 11 21 13 48 3 40 6 47 25 50
23 3 28 -6 36 -73 3 -23 4 -21 6 11 2 79 61 88 61 9 0 -25 5 -45 10 -45 6 0
10 22 10 49 0 56 -17 77 -52 65 -13 -4 -27 -6 -33 -4 -17 5 -75 7 -80 2z"/>
<path d="M1357 9602 c-39 -42 -9 -106 46 -100 44 4 44 23 0 23 -28 0 -38 5
-41 18 -3 14 4 17 37 17 34 0 41 3 41 20 0 19 -27 40 -53 40 -8 0 -21 -8 -30
-18z m61 -19 c2 -9 -7 -13 -27 -13 -30 0 -39 9 -24 24 11 10 46 3 51 -11z"/>
<path d="M1686 9604 c-19 -18 -21 -75 -4 -92 32 -32 88 -2 88 47 0 50 -52 78
-84 45z m59 -44 c0 -31 -3 -35 -25 -35 -19 0 -26 6 -28 23 -5 36 5 54 30 50
19 -2 23 -9 23 -38z"/>
<path d="M1805 9612 c-10 -10 -5 -152 5 -152 6 0 10 9 10 20 0 15 7 20 24 20
46 0 73 58 46 100 -8 13 -74 23 -85 12z m70 -52 c0 -31 -3 -35 -27 -38 -26 -3
-28 -1 -28 31 0 40 7 49 35 45 16 -2 20 -10 20 -38z"/>
<path d="M2360 9561 c0 -34 4 -61 10 -61 6 0 10 20 10 44 0 39 3 46 28 55 26
10 27 10 2 9 -14 -2 -31 1 -37 5 -10 6 -13 -6 -13 -52z"/>
<path d="M2457 9602 c-39 -42 -9 -106 46 -100 44 4 44 23 0 23 -28 0 -38 5
-41 18 -3 14 4 17 37 17 34 0 41 3 41 20 0 19 -27 40 -53 40 -8 0 -21 -8 -30
-18z m61 -19 c2 -9 -7 -13 -27 -13 -30 0 -39 9 -24 24 11 10 46 3 51 -11z"/>
<path d="M2568 9615 c-7 -8 23 -115 33 -115 4 0 14 19 22 43 10 27 17 37 21
27 3 -8 10 -27 15 -42 6 -16 14 -28 19 -28 10 0 36 109 28 117 -6 6 -10 -4
-21 -52 l-7 -30 -19 44 c-11 24 -22 42 -24 39 -3 -2 -11 -22 -19 -44 l-13 -39
-12 43 c-12 43 -14 46 -23 37z"/>
<path d="M2756 9604 c-9 -8 -16 -31 -16 -49 0 -39 24 -58 67 -53 41 5 37 23
-4 23 -28 0 -38 5 -41 18 -3 14 4 17 37 17 29 0 41 4 41 14 0 20 -28 46 -50
46 -10 0 -26 -7 -34 -16z m62 -21 c2 -9 -7 -13 -27 -13 -30 0 -39 9 -24 24 11
10 46 3 51 -11z"/>
<path d="M2870 9561 c0 -34 4 -61 10 -61 6 0 10 20 10 44 0 39 3 46 28 55 26
10 27 10 2 9 -14 -2 -31 1 -37 5 -10 6 -13 -6 -13 -52z"/>
<path d="M2960 9561 c0 -34 4 -61 10 -61 6 0 10 24 10 54 0 30 -4 58 -10 61
-6 4 -10 -17 -10 -54z"/>
<path d="M3027 9602 c-39 -42 -9 -106 46 -100 44 4 44 23 0 23 -28 0 -38 5
-41 18 -3 14 4 17 37 17 34 0 41 3 41 20 0 19 -27 40 -53 40 -8 0 -21 -8 -30
-18z m61 -19 c2 -9 -7 -13 -27 -13 -30 0 -39 9 -24 24 11 10 46 3 51 -11z"/>
<path d="M3153 9613 c-7 -2 -13 -15 -13 -28 0 -17 8 -26 30 -34 31 -10 39 -26
18 -34 -7 -2 -24 0 -36 5 -18 6 -23 5 -20 -4 6 -17 56 -22 74 -7 23 19 16 40
-16 52 -16 6 -30 18 -30 25 0 10 9 13 30 10 32 -5 41 6 14 16 -18 7 -33 7 -51
-1z"/>
<path d="M5290 8895 c0 -54 1 -55 28 -55 35 0 62 27 62 63 0 29 -24 47 -64 47
-25 0 -26 -3 -26 -55z m68 33 c17 -17 15 -44 -4 -62 -29 -30 -44 -20 -44 29 0
37 3 45 18 45 10 0 23 -5 30 -12z"/>
<path d="M5843 8895 c0 -33 2 -45 4 -27 2 18 2 45 0 60 -2 15 -4 0 -4 -33z"/>
<path d="M6120 8940 c0 -5 -9 -10 -20 -10 -27 0 -48 -45 -33 -68 5 -9 22 -17
37 -18 25 -1 26 1 26 52 0 30 -2 54 -5 54 -3 0 -5 -4 -5 -10z m-5 -56 c0 -19
-6 -30 -16 -32 -20 -4 -30 28 -17 52 14 25 33 14 33 -20z"/>
<path d="M6370 8895 c0 -52 2 -55 24 -55 36 0 59 26 45 52 -6 11 -8 22 -5 25
11 11 -16 33 -40 33 -22 0 -24 -4 -24 -55z m50 30 c0 -8 -9 -15 -20 -15 -11 0
-20 7 -20 15 0 8 9 15 20 15 11 0 20 -7 20 -15z m5 -50 c0 -13 -8 -21 -22 -23
-19 -3 -23 1 -23 23 0 22 4 26 23 23 14 -2 22 -10 22 -23z"/>
<path d="M7036 8934 c-20 -20 -20 -43 0 -72 16 -23 58 -30 69 -12 4 7 -2 9
-17 5 -31 -8 -51 14 -46 52 3 24 7 28 35 28 17 0 29 3 26 7 -8 14 -51 9 -67
-8z"/>
<path d="M5424 8922 c-32 -22 -20 -82 16 -82 18 0 40 27 40 49 0 11 -28 41
-38 41 -4 0 -12 -4 -18 -8z m31 -38 c0 -19 -5 -29 -15 -29 -16 0 -25 28 -16
51 10 25 31 10 31 -22z"/>
<path d="M5514 8922 c-33 -23 -19 -88 17 -79 13 4 19 1 16 -6 -2 -7 -14 -12
-26 -11 -11 0 -21 -3 -21 -8 0 -5 12 -8 28 -6 26 3 27 6 30 61 3 49 1 57 -15
57 -10 0 -23 -4 -29 -8z m34 -35 c3 -22 -1 -27 -17 -27 -15 0 -21 6 -21 23 0
46 33 49 38 4z"/>
<path d="M5602 8918 c-28 -28 -3 -92 29 -72 5 3 9 0 9 -6 0 -6 -10 -15 -22
-20 l-23 -9 22 0 c29 -1 45 30 41 77 -2 28 -8 38 -23 40 -11 1 -26 -3 -33 -10z
m38 -34 c0 -17 -5 -24 -20 -24 -14 0 -20 7 -20 24 0 23 17 38 33 29 4 -2 7
-15 7 -29z"/>
<path d="M5696 8914 c-19 -18 -21 -45 -4 -62 14 -14 58 -16 58 -3 0 5 -8 7
-18 4 -10 -2 -24 3 -31 11 -12 14 -9 16 18 16 24 0 31 4 31 19 0 10 -7 22 -16
25 -21 8 -20 8 -38 -10z m42 -12 c2 -7 -6 -12 -17 -12 -21 0 -27 11 -14 24 9
9 26 2 31 -12z"/>
<path d="M5782 8881 c1 -44 2 -44 5 -8 3 30 8 37 25 37 26 0 15 13 -12 15 -17
1 -20 -4 -18 -44z"/>
<path d="M5885 8920 c-5 -9 -1 -10 13 -6 11 4 23 2 27 -3 3 -6 -6 -13 -20 -17
-38 -9 -31 -49 8 -50 27 -1 28 1 25 40 -2 33 -7 42 -25 44 -11 2 -24 -2 -28
-8z m37 -62 c-11 -11 -32 -3 -32 12 0 12 34 18 39 7 2 -5 -1 -13 -7 -19z"/>
<path d="M5972 8880 c1 -34 2 -38 5 -15 10 64 52 65 54 1 1 -25 3 -26 6 -7 3
12 2 34 -1 47 -5 18 -12 23 -36 21 -29 -2 -30 -4 -28 -47z"/>
<path d="M6174 8922 c-18 -12 -24 -42 -14 -63 10 -19 60 -28 60 -11 0 5 -10 8
-21 8 -12 -1 -24 5 -26 12 -3 8 6 12 26 12 34 0 36 2 21 31 -11 20 -27 24 -46
11z m34 -20 c2 -7 -6 -12 -17 -12 -21 0 -27 11 -14 24 9 9 26 2 31 -12z"/>
<path d="M6252 8880 c1 -39 2 -40 5 -11 3 22 11 35 24 38 27 7 24 18 -6 18
-23 0 -25 -3 -23 -45z"/>
<path d="M6472 8880 c1 -39 2 -40 5 -11 3 22 11 35 24 38 27 7 24 18 -6 18
-23 0 -25 -3 -23 -45z"/>
<path d="M6542 8918 c-7 -7 -12 -25 -12 -40 0 -21 6 -29 26 -34 14 -4 30 -2
35 3 5 5 -2 9 -18 8 -14 0 -28 6 -30 13 -3 8 6 12 26 12 19 0 31 5 31 13 0 16
-20 37 -35 37 -6 0 -16 -5 -23 -12z m38 -19 c0 -5 -9 -9 -20 -9 -22 0 -27 16
-7 23 15 5 27 -1 27 -14z"/>
<path d="M6626 8895 c8 -57 16 -64 30 -24 l12 34 12 -33 c15 -40 26 -32 34 23
l6 40 -14 -35 -14 -35 -7 28 c-4 15 -11 27 -15 27 -5 0 -13 -12 -18 -27 l-9
-28 -12 35 -11 35 6 -40z"/>
<path d="M6792 8881 c1 -44 2 -44 5 -8 2 20 8 37 14 37 5 0 12 0 17 0 4 1 10
-16 13 -37 7 -38 7 -37 5 7 -1 42 -3 45 -28 46 -27 1 -28 -1 -26 -45z"/>
<path d="M6892 8918 c-28 -28 -3 -92 29 -72 5 3 9 0 9 -6 0 -6 -10 -15 -22
-20 l-23 -9 22 0 c29 -1 45 30 41 77 -2 28 -8 38 -23 40 -11 1 -26 -3 -33 -10z
m38 -34 c0 -17 -5 -24 -20 -24 -14 0 -20 7 -20 24 0 23 17 38 33 29 4 -2 7
-15 7 -29z"/>
<path d="M7142 8918 c-18 -18 -15 -68 4 -75 37 -14 70 41 44 73 -15 17 -32 18
-48 2z m38 -13 c16 -19 3 -57 -18 -53 -18 3 -27 30 -18 54 7 18 20 18 36 -1z"/>
<path d="M7222 8880 c1 -34 2 -38 5 -15 9 62 43 69 43 9 0 -19 5 -34 10 -34 6
0 10 15 10 34 0 20 6 36 14 39 20 8 26 -1 27 -42 1 -25 3 -29 6 -12 3 12 2 33
-1 46 -5 20 -11 22 -61 21 l-55 -1 2 -45z"/>
<path d="M7371 8865 c1 -33 3 -52 6 -42 2 9 12 17 22 17 24 0 41 20 41 46 0
26 -15 39 -47 39 -22 1 -23 -3 -22 -60z m48 3 c-13 -24 -33 -18 -37 12 -5 30
19 45 35 23 9 -11 9 -21 2 -35z"/>
<path d="M7465 8920 c-5 -9 -1 -10 13 -6 11 4 23 2 27 -3 3 -6 -6 -13 -20 -17
-38 -9 -31 -49 8 -50 27 -1 28 1 25 40 -2 33 -7 42 -25 44 -11 2 -24 -2 -28
-8z m37 -62 c-11 -11 -32 -3 -32 12 0 12 34 18 39 7 2 -5 -1 -13 -7 -19z"/>
<path d="M7552 8880 c1 -34 2 -38 5 -15 10 64 52 65 54 1 1 -25 3 -26 6 -7 3
12 2 34 -1 47 -5 18 -12 23 -36 21 -29 -2 -30 -4 -28 -47z"/>
<path d="M7640 8925 c0 -3 7 -22 15 -42 9 -20 13 -46 10 -57 -3 -12 6 2 19 29
14 28 25 57 25 65 -1 8 -8 -1 -16 -20 l-16 -35 -13 33 c-13 28 -24 42 -24 27z"/>
<path d="M6740 8880 c0 -22 5 -40 10 -40 6 0 10 18 10 40 0 22 -4 40 -10 40
-5 0 -10 -18 -10 -40z"/>
<path d="M6420 8750 c-10 -6 -11 -10 -2 -10 20 0 16 -78 -5 -83 -10 -3 -2 -5
17 -6 19 0 30 3 23 7 -6 4 -13 29 -15 54 -2 39 -6 46 -18 38z"/>
<path d="M6572 8702 c2 -38 7 -47 23 -50 18 -2 18 -2 3 8 -22 14 -23 56 -2 68
14 8 13 10 -5 15 -21 5 -22 2 -19 -41z"/>
<path d="M6503 8733 c-22 -8 -14 -33 13 -43 28 -11 23 -35 -7 -27 -11 3 -19 1
-19 -5 0 -5 12 -8 27 -6 38 4 43 35 8 48 -30 11 -24 34 7 24 14 -4 18 -2 14 5
-7 11 -22 13 -43 4z"/>
<path d="M1605 7718 c2 -7 9 -32 15 -55 14 -54 26 -55 35 -3 8 47 20 45 29 -5
4 -19 11 -35 15 -35 11 0 36 99 28 107 -3 3 -9 -11 -12 -31 -10 -51 -22 -53
-30 -6 -8 49 -22 52 -31 5 -9 -50 -21 -52 -29 -5 -4 22 -11 40 -16 40 -4 0 -6
-6 -4 -12z"/>
<path d="M2073 7675 c0 -33 2 -45 4 -27 2 18 2 45 0 60 -2 15 -4 0 -4 -33z"/>
<path d="M2675 7718 c-27 -76 -34 -102 -21 -85 17 21 66 23 66 2 0 -8 4 -15
10 -15 5 0 1 23 -10 50 -11 28 -20 53 -20 55 0 11 -21 4 -25 -7z m25 -39 c0
-12 -5 -19 -11 -17 -6 2 -10 7 -10 11 1 4 1 14 1 23 0 8 5 12 10 9 6 -3 10
-15 10 -26z"/>
<path d="M2750 7674 l0 -55 33 3 c30 3 32 5 32 43 0 35 -3 40 -22 39 -13 0
-23 5 -23 13 0 7 -4 13 -10 13 -5 0 -10 -25 -10 -56z m58 -15 c-1 -13 -11 -25
-20 -27 -14 -3 -18 3 -18 26 0 30 17 46 33 32 5 -4 7 -18 5 -31z"/>
<path d="M2900 7720 c0 -5 -9 -10 -20 -10 -27 0 -48 -45 -33 -68 5 -9 22 -17
37 -18 25 -1 26 1 26 52 0 30 -2 54 -5 54 -3 0 -5 -4 -5 -10z m-5 -56 c0 -19
-6 -30 -16 -32 -20 -4 -30 28 -17 52 14 25 33 14 33 -20z"/>
<path d="M3092 7717 c-14 -17 -3 -33 32 -46 36 -14 28 -36 -14 -34 -21 1 -29
-2 -22 -9 5 -5 22 -8 38 -6 21 2 30 9 32 26 3 18 -3 26 -27 35 -37 14 -35 32
2 32 15 -1 27 3 27 7 0 13 -57 9 -68 -5z"/>
<path d="M3188 7719 c-3 -8 -3 -32 1 -54 5 -29 12 -41 26 -43 18 -2 19 -2 3 8
-10 6 -18 22 -18 35 0 13 8 29 18 34 15 9 15 10 0 11 -9 0 -18 5 -20 12 -3 8
-6 7 -10 -3z"/>
<path d="M3362 7717 c-14 -17 -3 -33 32 -46 36 -14 28 -36 -14 -34 -21 1 -29
-2 -22 -9 5 -5 22 -8 38 -6 21 2 30 9 32 26 3 18 -3 26 -27 35 -37 14 -35 32
2 32 15 -1 27 3 27 7 0 13 -57 9 -68 -5z"/>
<path d="M3588 7719 c-3 -8 -3 -32 1 -54 5 -29 12 -41 26 -43 18 -2 19 -2 3 8
-10 6 -18 22 -18 35 0 13 8 29 18 34 15 9 15 10 0 11 -9 0 -18 5 -20 12 -3 8
-6 7 -10 -3z"/>
<path d="M1920 7687 c0 -35 23 -77 36 -64 4 4 2 7 -4 7 -7 0 -12 15 -12 35 0
21 5 35 13 35 8 0 7 4 -3 10 -25 16 -30 12 -30 -23z"/>
<path d="M2202 7672 c2 -38 7 -47 23 -50 18 -2 18 -2 3 8 -22 14 -23 56 -2 68
14 8 13 10 -5 15 -21 5 -22 2 -19 -41z"/>
<path d="M1766 7694 c-19 -18 -21 -45 -4 -62 14 -14 58 -16 58 -3 0 5 -8 7
-18 4 -10 -2 -24 3 -31 11 -12 14 -9 16 18 16 24 0 31 4 31 19 0 10 -7 22 -16
25 -21 8 -20 8 -38 -10z m42 -12 c2 -7 -6 -12 -17 -12 -21 0 -27 11 -14 24 9
9 26 2 31 -12z"/>
<path d="M1852 7698 c-18 -18 -15 -27 13 -38 14 -5 25 -15 25 -21 0 -7 -10 -9
-25 -7 -14 3 -25 1 -25 -4 0 -5 12 -8 27 -6 35 4 45 37 14 45 -12 3 -21 12
-21 20 0 10 6 12 21 8 15 -5 19 -4 15 4 -9 14 -29 14 -44 -1z"/>
<path d="M1981 7702 c-1 -16 26 -82 33 -82 7 0 36 69 35 84 0 6 -6 -2 -13 -17
-17 -38 -25 -38 -41 -2 -7 17 -14 24 -14 17z"/>
<path d="M2122 7698 c-7 -7 -12 -25 -12 -40 0 -21 6 -29 26 -34 14 -4 30 -2
35 3 5 5 -2 9 -18 8 -14 0 -28 6 -30 13 -3 8 6 12 26 12 19 0 31 5 31 13 0 16
-20 37 -35 37 -6 0 -16 -5 -23 -12z m38 -19 c0 -5 -9 -9 -20 -9 -22 0 -27 16
-7 23 15 5 27 -1 27 -14z"/>
<path d="M2272 7698 c-7 -7 -12 -25 -12 -40 0 -21 6 -29 26 -34 14 -4 30 -2
35 3 5 5 -2 9 -18 8 -14 0 -28 6 -30 13 -3 8 6 12 26 12 19 0 31 5 31 13 0 16
-20 37 -35 37 -6 0 -16 -5 -23 -12z m38 -19 c0 -5 -9 -9 -20 -9 -22 0 -27 16
-7 23 15 5 27 -1 27 -14z"/>
<path d="M2352 7660 c1 -39 2 -40 5 -11 3 22 11 35 24 38 27 7 24 18 -6 18
-23 0 -25 -3 -23 -45z"/>
<path d="M2422 7698 c-29 -29 -7 -78 35 -78 13 0 23 4 23 9 0 4 -11 6 -24 4
-15 -3 -25 1 -29 11 -5 12 0 16 23 16 18 0 30 5 30 13 0 16 -20 37 -35 37 -6
0 -16 -5 -23 -12z m48 -19 c0 -5 -9 -9 -20 -9 -19 0 -26 11 -14 23 8 8 34 -3
34 -14z"/>
<path d="M2518 7703 c-13 -3 -18 -15 -18 -44 0 -21 5 -39 10 -39 6 0 10 16 10
35 0 19 5 35 10 35 6 0 13 0 18 0 4 1 10 -16 13 -37 7 -38 7 -38 5 7 -1 46
-10 54 -48 43z"/>
<path d="M2943 7665 c0 -27 2 -38 4 -22 2 15 2 37 0 50 -2 12 -4 0 -4 -28z"/>
<path d="M2988 7656 c3 -43 0 -55 -12 -59 -13 -4 -13 -5 1 -3 15 1 19 12 21
59 2 31 -1 57 -5 57 -4 0 -6 -24 -5 -54z"/>
<path d="M3463 7665 c0 -27 2 -38 4 -22 2 15 2 37 0 50 -2 12 -4 0 -4 -28z"/>
<path d="M3506 7685 c16 -24 16 -27 -1 -45 -10 -11 -13 -20 -7 -20 6 0 16 8
22 18 10 16 10 16 20 0 6 -10 16 -18 22 -18 6 0 3 9 -6 19 -14 15 -15 24 -7
40 16 29 13 38 -4 15 -14 -18 -16 -18 -29 -1 -20 26 -29 20 -10 -8z"/>
<path d="M3654 7670 c1 -42 3 -45 29 -46 26 -1 27 1 26 45 l-2 46 -6 -40 c-4
-26 -11 -40 -21 -40 -10 0 -17 14 -21 40 l-7 40 2 -45z"/>
<path d="M3743 7693 c-4 -11 1 -22 15 -31 28 -18 29 -36 2 -29 -11 3 -20 1
-20 -4 0 -10 21 -12 44 -3 24 9 19 29 -10 42 -29 14 -22 36 8 26 14 -4 18 -2
14 5 -11 17 -46 13 -53 -6z"/>
<path d="M3250 7630 c0 -5 5 -10 10 -10 6 0 10 5 10 10 0 6 -4 10 -10 10 -5 0
-10 -4 -10 -10z"/>
<path d="M2593 7523 c35 -6 36 -32 2 -63 -34 -32 -31 -40 13 -39 30 2 32 3 9
6 l-28 4 26 31 c35 41 29 63 -15 64 -26 1 -28 1 -7 -3z"/>
<path d="M2810 7522 c0 -4 -10 -12 -22 -17 -18 -8 -23 -18 -23 -45 0 -32 3
-35 33 -38 l32 -3 0 55 c0 31 -4 56 -10 56 -5 0 -10 -3 -10 -8z m-2 -63 c-4
-28 -31 -32 -36 -6 -5 23 18 51 30 39 6 -6 8 -20 6 -33z"/>
<path d="M2672 7461 c1 -44 2 -44 5 -8 2 20 8 37 14 37 5 0 12 0 17 0 4 1 10
-16 13 -37 7 -38 7 -37 5 7 -1 42 -3 45 -28 46 -27 1 -28 -1 -26 -45z"/>
<path d="M9872 7003 l1 -58 6 50 7 50 24 -47 c13 -27 28 -48 32 -48 4 0 7 26
6 58 -1 52 -2 53 -5 13 l-4 -45 -25 42 c-14 23 -29 42 -35 42 -5 0 -8 -26 -7
-57z"/>
<path d="M10113 7005 c0 -33 2 -45 4 -27 2 18 2 45 0 60 -2 15 -4 0 -4 -33z"/>
<path d="M10153 7005 c0 -33 2 -45 4 -27 2 18 2 45 0 60 -2 15 -4 0 -4 -33z"/>
<path d="M10254 7046 c-3 -7 -4 -17 -3 -22 1 -5 -1 -17 -6 -27 -12 -27 12 -46
55 -44 31 1 37 4 28 14 -6 7 -8 22 -5 33 3 11 1 20 -4 20 -5 0 -9 -7 -9 -16 0
-8 -4 -12 -10 -9 -5 3 -7 19 -3 35 5 26 2 30 -16 30 -12 0 -24 -6 -27 -14z
m34 -7 c-2 -6 -8 -10 -13 -10 -5 0 -11 4 -13 10 -2 6 4 11 13 11 9 0 15 -5 13
-11z m2 -48 c7 -13 7 -22 0 -26 -15 -9 -30 4 -30 26 0 25 16 25 30 0z"/>
<path d="M10411 7003 c0 -32 3 -51 6 -43 2 8 7 21 9 29 3 11 12 8 32 -12 35
-33 54 -36 23 -3 -20 21 -21 26 -9 45 11 18 11 23 -2 31 -8 5 -25 10 -37 10
-21 0 -23 -4 -22 -57z m54 27 c0 -8 -10 -16 -22 -18 -18 -3 -23 2 -23 18 0 16
5 21 23 18 12 -2 22 -10 22 -18z"/>
<path d="M9992 7028 c-7 -7 -12 -25 -12 -40 0 -21 6 -29 26 -34 14 -4 30 -2
35 3 5 5 -2 9 -18 8 -14 0 -28 6 -30 13 -3 8 6 12 26 12 19 0 31 5 31 13 0 16
-20 37 -35 37 -6 0 -16 -5 -23 -12z m38 -19 c0 -5 -9 -9 -20 -9 -22 0 -27 16
-7 23 15 5 27 -1 27 -14z"/>
<path d="M10073 6995 c0 -27 2 -38 4 -22 2 15 2 37 0 50 -2 12 -4 0 -4 -28z"/>
<path d="M10522 7028 c-18 -18 -15 -68 4 -75 37 -14 70 41 44 73 -15 17 -32
18 -48 2z m38 -13 c16 -19 3 -57 -18 -53 -18 3 -27 30 -18 54 7 18 20 18 36
-1z"/>
<path d="M10613 7033 c-22 -8 -14 -33 13 -43 28 -11 23 -35 -7 -27 -11 3 -19
1 -19 -5 0 -5 12 -8 27 -6 38 4 43 35 8 48 -30 11 -24 34 7 24 14 -4 18 -2 14
5 -7 11 -22 13 -43 4z"/>
<path d="M10683 7023 c-4 -11 1 -22 15 -31 28 -18 29 -36 2 -29 -11 3 -20 1
-20 -4 0 -10 21 -12 44 -3 24 9 19 29 -10 42 -29 14 -22 36 8 26 14 -4 18 -2
14 5 -11 17 -46 13 -53 -6z"/>
<path d="M10218 6863 c25 -5 29 -21 7 -29 -14 -6 -13 -8 1 -19 23 -17 11 -49
-16 -42 -11 3 -20 1 -20 -4 0 -17 49 -9 59 10 6 10 8 21 4 25 -3 3 -6 18 -7
33 -1 23 -6 28 -26 29 -22 1 -22 0 -2 -3z"/>
<path d="M10400 6860 c0 -5 -9 -10 -20 -10 -27 0 -48 -45 -33 -68 5 -9 22 -17
37 -18 25 -1 26 1 26 52 0 30 -2 54 -5 54 -3 0 -5 -4 -5 -10z m-5 -56 c0 -19
-6 -30 -16 -32 -20 -4 -30 28 -17 52 14 25 33 14 33 -20z"/>
<path d="M10303 6843 c-19 -4 -23 -11 -23 -44 0 -21 5 -39 10 -39 6 0 10 16
10 35 0 24 5 35 15 35 8 0 15 5 15 10 0 6 -1 9 -2 9 -2 -1 -13 -4 -25 -6z"/>
<path d="M8402 3748 l3 -2943 1895 0 1895 0 3 2943 2 2942 -1900 0 -1900 0 2
-2942z"/>
</g>
</svg>
